<?xml version="1.0" encoding="UTF-8"?>
<svg version="1.1" xmlns="http://www.w3.org/2000/svg" width="1024" height="1024">
<path d="M0 0 C0.93325325 -0.00205263 1.8665065 -0.00410527 2.82804015 -0.0062201 C5.9427457 -0.0118565 9.05740656 -0.01043702 12.17211628 -0.00901413 C14.43299561 -0.01159971 16.69387449 -0.0146134 18.95475274 -0.01801753 C25.158623 -0.0260684 31.36248168 -0.02787604 37.56635654 -0.028615 C43.57336441 -0.03027843 49.58036637 -0.03659888 55.58737093 -0.04269341 C71.67518161 -0.0587266 87.7629913 -0.06465403 103.85080852 -0.06944216 C111.46870852 -0.0717812 119.08660777 -0.07538423 126.70450719 -0.07913754 C152.80538173 -0.09197182 178.90625586 -0.1026902 205.00713348 -0.10614014 C206.64455677 -0.10636177 208.28198005 -0.10658355 209.91940333 -0.10680549 C211.56068094 -0.10702613 213.20195854 -0.10724661 214.84323615 -0.10746694 C218.13566824 -0.10790948 221.42810033 -0.10835659 224.72053242 -0.10880661 C225.53685958 -0.108916 226.35318674 -0.10902539 227.19425108 -0.1091381 C253.6426635 -0.11276587 280.09104846 -0.128676 306.53945037 -0.15199697 C334.53255398 -0.17663464 362.52564192 -0.19031484 390.51875669 -0.19150805 C393.59627744 -0.19167949 396.67379819 -0.19189492 399.75131893 -0.19214249 C400.88789448 -0.19222614 400.88789448 -0.19222614 402.04743115 -0.19231148 C414.20270951 -0.19345862 426.35795954 -0.20445195 438.51322836 -0.21902954 C450.74956203 -0.23344968 462.98585968 -0.23660059 475.22219952 -0.22858956 C481.84169128 -0.22454635 488.46110852 -0.2255451 495.08059406 -0.23964691 C501.15515843 -0.25246878 507.22955784 -0.25111622 513.30412225 -0.2390562 C515.48726142 -0.23711344 517.67041262 -0.24011082 519.85353496 -0.24890056 C590.03834982 -0.51330704 655.52536405 28.61500853 705.11921406 77.75642776 C710.90186501 83.58544 716.22919921 89.62384897 721.24421406 96.13142776 C722.2590647 97.40678392 723.27475186 98.68147469 724.29108906 99.95564651 C732.12925992 109.87755851 738.99121153 120.14477825 745.24421406 131.13142776 C745.67331074 131.88117874 746.10240742 132.63092972 746.54450703 133.40340042 C759.2529277 155.86087838 767.64001086 180.19559006 772.99421406 205.38142776 C773.29247089 206.78122879 773.29247089 206.78122879 773.59675312 208.20930862 C776.79283886 223.99923305 777.65169854 239.37723219 777.61921406 255.44392776 C777.61839832 256.96436691 777.61839832 256.96436691 777.61756611 258.515522 C777.57768823 274.71263998 776.71169207 290.25651141 773.24421406 306.13142776 C772.91477802 307.67081009 772.91477802 307.67081009 772.57868671 309.24129105 C763.94077429 348.60400732 746.61098176 384.8269574 721.24421406 416.13142776 C720.79884296 416.68121292 720.35347187 417.23099808 719.89460468 417.79744339 C708.69617847 431.49142862 696.32643376 444.38749993 682.24421406 455.13142776 C681.07988414 456.04775474 679.91584042 456.96444544 678.75202656 457.88142776 C632.27160658 494.06404085 576.10770225 512.50393464 517.47453022 512.39212418 C515.20760874 512.39515002 512.94068827 512.39904167 510.67376959 512.40371674 C504.48569928 512.41394977 498.29768721 512.41182694 492.10961223 512.40753615 C486.1080096 512.40531511 480.10642233 512.41249275 474.10482494 512.4192964 C460.32513438 512.43448974 446.54546229 512.43624625 432.76576512 512.43377338 C422.11943555 512.43193642 411.47311199 512.43370876 400.82678318 512.43799782 C399.29395012 512.43860024 397.76111707 512.43920143 396.22828401 512.43980142 C393.91806622 512.44070874 391.60784843 512.44161741 389.29763065 512.44253377 C367.83387847 512.45095645 346.37012854 512.45530378 324.90637493 512.45112705 C324.09820408 512.45097068 323.29003324 512.4508143 322.45737236 512.45065319 C318.36181745 512.44984748 314.26626254 512.4490017 310.17070763 512.44813988 C309.35740813 512.4479688 308.54410863 512.44779771 307.70616369 512.44762144 C306.06147628 512.44727478 304.41678888 512.44692625 302.77210148 512.44657585 C277.19166573 512.44122094 251.61126447 512.44914533 226.03083515 512.46760941 C197.24887864 512.48836034 168.46694349 512.49904616 139.68497908 512.49503392 C136.61149923 512.49463861 133.53801938 512.49427706 130.46453953 512.49393654 C129.707848 512.49384581 128.95115647 512.49375508 128.17153489 512.49366159 C116.78573206 512.49249927 105.3999509 512.49911611 94.01415348 512.50974846 C81.05263214 512.52184039 68.09115832 512.52331374 55.12963621 512.51095829 C48.52427513 512.50494231 41.91898667 512.50391867 35.31362629 512.51596069 C29.25229013 512.52688192 23.19112336 512.52364253 17.12979491 512.50969901 C14.95157723 512.50706914 12.77334601 512.50936396 10.59514169 512.51743487 C-27.99462306 512.65035518 -66.06626915 504.24251058 -100.75578594 487.13142776 C-101.58239727 486.72698441 -102.4090086 486.32254105 -103.26066875 485.90584183 C-121.01217388 477.1389335 -137.40957975 466.64223066 -152.75578594 454.13142776 C-153.3065379 453.68363968 -153.85728985 453.23585159 -154.42473125 452.77449417 C-167.78636317 441.82252408 -180.19718052 429.83247528 -190.75578594 416.13142776 C-191.77063659 414.85607161 -192.78632374 413.58138084 -193.80266094 412.30720901 C-201.6408318 402.38529702 -208.50278342 392.11807728 -214.75578594 381.13142776 C-215.18488262 380.38167679 -215.6139793 379.63192581 -216.05607891 378.85945511 C-228.76449959 356.40197715 -237.15158274 332.06726547 -242.50578594 306.88142776 C-242.70462383 305.94822708 -242.90346172 305.0150264 -243.108325 304.05354691 C-246.30441074 288.26362248 -247.16327043 272.88562334 -247.13078594 256.81892776 C-247.13024212 255.80530167 -247.1296983 254.79167557 -247.12913799 253.74733353 C-247.08926011 237.55021555 -246.22326396 222.00634412 -242.75578594 206.13142776 C-242.53616192 205.10517288 -242.3165379 204.078918 -242.0902586 203.02156448 C-233.45234617 163.65884821 -216.12255364 127.43589813 -190.75578594 96.13142776 C-190.31041485 95.58164261 -189.86504375 95.03185745 -189.40617657 94.46541214 C-178.18976353 80.74943174 -165.81321526 67.94641353 -151.75578594 57.13142776 C-150.80059063 56.35927933 -149.84539532 55.58713089 -148.86125469 54.79158401 C-107.90627418 22.1821467 -52.72920465 -0.10982675 0 0 Z M-29.63078594 96.44392776 C-33.19236673 101.41338048 -35.7143333 106.72898563 -37.50187969 112.56892776 C-39.16340718 115.96444811 -41.66927732 117.99188413 -44.50578594 120.38142776 C-53.58692138 128.40435717 -60.23488733 137.8044667 -61.13859844 150.26033401 C-61.52294959 159.72524356 -60.91832901 168.27512752 -54.50578594 175.75642776 C-53.63953594 176.43705276 -53.63953594 176.43705276 -52.75578594 177.13142776 C-52.59143047 176.13562698 -52.59143047 176.13562698 -52.42375469 175.11970901 C-51.54442571 170.22263298 -50.76126881 166.22981349 -47.75578594 162.13142776 C-43.92189391 163.56913728 -40.34014725 165.32973322 -36.72062969 167.22908401 C-30.25859368 170.19673873 -21.92963535 170.19814708 -15.12687969 168.45955276 C-13.30236389 167.7676076 -11.52137591 166.96229363 -9.75578594 166.13142776 C-9.50441875 166.80431839 -9.25305157 167.47720901 -8.99406719 168.17049026 C-7.23887774 172.36744171 -5.09466987 176.36525765 -2.94133282 180.36970901 C3.20711148 192.28895804 6.14455083 205.19669995 8.75428486 218.24702835 C9.25645764 220.75507702 9.77083652 223.26035275 10.28864765 225.76521683 C10.97163856 229.06982279 11.65197358 232.37494693 12.329175 235.68074417 C17.85948068 262.62653423 24.59949984 285.8548337 41.24421406 308.13142776 C42.00347187 309.1510762 42.76272968 310.17072464 43.54499531 311.22127151 C48.50191606 317.52491705 53.67275182 322.44690321 60.15900898 327.1280098 C71.36874842 335.33499593 71.36874842 335.33499593 72.8406496 341.71785355 C73.04963771 344.60499496 73.05996784 347.42528482 72.99421406 350.31892776 C73.01692596 352.36721732 73.04812043 354.41543108 73.08796406 356.46345901 C73.10472187 357.44137405 73.12147968 358.41928909 73.13874531 359.42683792 C73.42859817 366.8596852 75.12054928 373.56314106 78.99421406 379.94392776 C80.78388264 382.90857633 81.63314383 384.89214423 81.43171406 388.38142776 C79.90561813 393.20067806 78.37460868 394.34973343 74.24421406 397.13142776 C71.17905237 398.66400861 67.98215678 398.36587059 64.61921406 398.38142776 C63.86519306 398.38610062 63.11117207 398.39077347 62.33430195 398.39558792 C56.94369568 398.34505625 51.94048903 397.6501832 46.68171406 396.50642776 C40.73590392 395.23751355 36.99510501 395.02276775 31.24421406 397.13142776 C30.27741718 397.30674026 29.31062031 397.48205276 28.31452656 397.66267776 C22.63652214 398.71775927 19.03660303 399.55936723 15.49421406 404.31892776 C14.7103042 405.56912883 13.94693787 406.83385441 13.24421406 408.13142776 C14.23421406 408.46142776 15.22421406 408.79142776 16.24421406 409.13142776 C17.23421406 408.47142776 18.22421406 407.81142776 19.24421406 407.13142776 C21.28718281 406.71736526 21.28718281 406.71736526 23.43171406 406.50642776 C24.68983906 406.38267776 25.94796406 406.25892776 27.24421406 406.13142776 C27.24421406 407.45142776 27.24421406 408.77142776 27.24421406 410.13142776 C28.56421406 410.79142776 29.88421406 411.45142776 31.24421406 412.13142776 C31.24421406 414.44142776 31.24421406 416.75142776 31.24421406 419.13142776 C32.13108906 418.28580276 33.01796406 417.44017776 33.93171406 416.56892776 C36.85489285 414.12257956 36.85489285 414.12257956 39.99421406 414.19392776 C42.24421406 415.13142776 42.24421406 415.13142776 44.24421406 417.13142776 C50.90779836 417.82327532 55.19216615 416.22196 61.05671406 413.19392776 C62.54184749 412.45455351 64.02750363 411.71622801 65.51374531 410.97908401 C66.15932392 410.64916458 66.80490253 410.31924515 67.47004414 409.97932816 C75.49449225 406.1443332 85.99552522 407.49184734 94.24421406 410.13142776 C94.24421406 410.79142776 94.24421406 411.45142776 94.24421406 412.13142776 C93.04796406 412.04892776 91.85171406 411.96642776 90.61921406 411.88142776 C86.15714044 411.87350223 83.6718485 413.20539836 80.24421406 416.13142776 C79.91421406 417.12142776 79.58421406 418.11142776 79.24421406 419.13142776 C80.06921406 418.80142776 80.89421406 418.47142776 81.74421406 418.13142776 C87.40524392 416.51399066 91.77007129 416.30015424 97.01765156 418.85017776 C100.22682187 420.10017079 101.90778883 420.28666256 105.10358906 418.96345901 C106.41216449 418.31331866 107.70898534 417.63908192 108.99421406 416.94392776 C115.67451154 413.65331513 121.76702197 411.82533385 129.24421406 411.13142776 C129.24421406 411.79142776 129.24421406 412.45142776 129.24421406 413.13142776 C128.40890156 413.22424026 128.40890156 413.22424026 127.55671406 413.31892776 C121.3419093 415.50250782 117.38790311 422.63267268 114.24421406 428.13142776 C114.24421406 428.79142776 114.24421406 429.45142776 114.24421406 430.13142776 C126.30755869 430.32599784 136.41808185 423.44760897 146.35358906 417.29549026 C150.8871947 414.50413803 155.0042846 414.66840012 160.24421406 415.13142776 C162.36530781 415.80330276 162.36530781 415.80330276 164.30671406 416.63142776 C168.61886006 418.46452627 172.60634547 418.81687092 177.24421406 418.13142776 C179.97403238 416.77742131 179.97403238 416.77742131 182.24421406 415.13142776 C185.05671406 414.44392776 185.05671406 414.44392776 187.24421406 414.13142776 C185.79633337 411.07479076 184.90350956 409.4359595 181.78327656 407.99470901 C176.21895932 406.63740867 170.64937346 406.73647194 164.94343281 406.65291214 C159.67355766 406.49835929 155.76247573 406.15551746 151.24421406 403.13142776 C148.94787581 399.6869204 148.70404921 397.19330494 148.24421406 393.13142776 C148.82171406 392.94580276 149.39921406 392.76017776 149.99421406 392.56892776 C153.63515891 390.24276855 155.56442638 386.43584564 156.77644062 382.32722855 C157.29215485 379.9063863 157.45507762 377.6197672 157.56062031 375.14705276 C157.60251484 374.21248245 157.64440937 373.27791214 157.68757343 372.31502151 C157.72688984 371.34693558 157.76620625 370.37884964 157.80671406 369.38142776 C157.84989765 368.39787308 157.89308125 367.41431839 157.93757343 366.40095901 C158.04343458 363.97791501 158.14551576 361.55477237 158.24421406 359.13142776 C159.08339375 359.5323262 159.92257343 359.93322464 160.78718281 360.34627151 C169.50050781 364.47545298 178.30561185 368.3495031 187.1843996 372.10969925 C188.04331806 372.47393997 188.90223652 372.83818069 189.78718281 373.21345901 C190.93223286 373.6964949 190.93223286 373.6964949 192.10041523 374.18928909 C194.24421406 375.13142776 194.24421406 375.13142776 196.33527851 376.25130081 C198.34793358 377.34077639 198.34793358 377.34077639 201.24421406 377.13142776 C201.5007375 377.85588089 201.75726093 378.58033401 202.02155781 379.32674026 C205.89109282 388.20318161 214.01964926 396.26585068 222.80671406 400.31111526 C225.71899177 401.29120873 228.1921777 401.27338294 231.24421406 401.13142776 C231.57421406 400.47142776 231.90421406 399.81142776 232.24421406 399.13142776 C234.06952656 399.47174026 234.06952656 399.47174026 235.93171406 399.81892776 C239.22042097 400.2511912 240.11767869 400.1920593 243.24421406 398.69392776 C243.90421406 398.17830276 244.56421406 397.66267776 245.24421406 397.13142776 C246.15171406 397.77080276 247.05921406 398.41017776 247.99421406 399.06892776 C253.26561981 402.41424295 258.11145681 402.60066008 264.24421406 402.13142776 C267.1750208 401.26489362 267.1750208 401.26489362 269.24421406 400.13142776 C267.52710253 394.01421794 263.05973675 391.956593 257.99421406 388.60799026 C254.65880035 385.60422281 254.24973396 383.43173376 253.24421406 379.13142776 C252.00450949 377.09018006 252.00450949 377.09018006 250.36921406 375.44392776 C249.75562031 374.77748245 249.14202656 374.11103714 248.50983906 373.42439651 C246.79337399 371.68721549 245.059231 369.99032247 243.29108906 368.30720901 C235.01472209 360.38889855 230.65227412 353.67979342 227.18171406 342.63142776 C210.63854227 290.19334078 176.38879106 246.38884209 138.24421406 208.00642776 C137.75308125 207.5106221 137.26194843 207.01481644 136.75593281 206.50398636 C134.09109295 203.85081864 131.34960531 201.33717501 128.49812031 198.88533401 C123.49822818 194.54979646 118.84876919 189.88208488 114.18171406 185.19392776 C113.3225539 184.3386348 112.46339375 183.48334183 111.57819843 182.60213089 C96.04744869 167.04765196 85.74740594 150.38991828 76.12605 130.79964066 C66.28937354 110.83767527 53.84023451 94.05908084 32.24421406 86.13142776 C11.95201171 79.36736032 -14.71798049 78.30843978 -29.63078594 96.44392776 Z M452.46711445 148.55842972 C450.61374546 150.39522901 448.75502616 152.22664576 446.89094257 154.05257034 C429.56291656 170.74693674 429.56291656 170.74693674 418.11921406 191.63142776 C415.95170578 196.21224423 412.88646205 197.54508094 408.30671406 199.19392776 C407.64937275 199.42249466 406.99203144 199.65106155 406.3147707 199.88655472 C401.51841202 201.55940705 397.33295239 203.57377066 393.05671406 206.31892776 C392.03190937 206.97248245 391.00710468 207.62603714 389.95124531 208.29939651 C377.65737596 217.24560683 367.06321706 229.03322633 356.31623554 239.70930862 C354.47652219 241.53242013 352.631454 243.35014385 350.78107929 245.16243362 C330.27465516 265.2512856 314.43050135 286.47531931 313.99421406 316.50642776 C314.25793439 341.3752552 323.99514075 362.4007946 341.11921406 380.31892776 C359.65125472 398.17122176 383.33642826 404.62123628 408.45515156 404.34627151 C434.03080825 403.68105653 454.56114786 390.34516296 471.86921406 372.56892776 C476.83794429 367.49130491 481.81811934 362.55139843 487.20759296 357.92122269 C502.35288926 344.6114448 516.4484035 330.01883871 524.24421406 311.13142776 C524.24421406 310.47142776 524.24421406 309.81142776 524.24421406 309.13142776 C525.07565937 309.03990433 525.90710468 308.94838089 526.76374531 308.85408401 C530.88839736 307.99767478 534.2012012 306.47700953 537.93171406 304.56892776 C538.63868427 304.2074263 539.34565449 303.84592484 540.07404804 303.47346878 C551.30926935 297.59455905 559.81075603 289.85769388 568.56843281 280.81502151 C570.93500272 278.39586816 573.35800364 276.1218936 575.92780781 273.92049026 C581.16488679 269.40506848 586.07455335 264.56033913 590.97956562 259.69124222 C592.06459877 258.61767978 593.15406943 257.54858211 594.24812031 256.48421097 C613.39001828 237.85833706 625.71791844 216.46553027 626.49421406 189.19392776 C626.23185088 164.03621403 615.78782195 142.22990484 598.13581562 124.58626175 C585.49009436 112.46259375 569.38581741 105.24385981 552.24421406 102.13142776 C551.54038593 101.99994339 550.83655781 101.86845901 550.11140156 101.73299026 C508.51191574 95.2929025 479.77717261 121.42691598 452.46711445 148.55842972 Z " fill="#FFFFFF" transform="translate(246.75578594207764,255.86857223510742)"/>
<path d="M0 0 C11.16433928 9.10323049 16.78052592 21.2134517 18.39550781 35.30664062 C19.54516166 48.12738772 16.326263 60.27621721 8.16723633 70.41113281 C0.85531258 78.73847727 -7.11642144 86.49000939 -14.94897461 94.32177734 C-17.41613522 96.79114405 -19.87515668 99.2684329 -22.33398438 101.74609375 C-23.91357307 103.32861367 -25.4936346 104.91066181 -27.07421875 106.4921875 C-27.8024736 107.22762787 -28.53072845 107.96306824 -29.28105164 108.72079468 C-33.04312969 112.46612826 -36.67078904 115.65777139 -41.21875 118.40625 C-42.80183001 114.70554349 -43.82357627 111.06096799 -44.78125 107.15625 C-51.61152034 83.17496996 -67.60410031 66.01940079 -89.0546875 54.03515625 C-93.43765082 51.7787418 -96.24233126 50.40625 -101.21875 50.40625 C-108.4546584 57.88984231 -111.40353931 69.06873699 -111.28125 79.21875 C-111.27222656 80.19457031 -111.26320313 81.17039062 -111.25390625 82.17578125 C-111.24230469 82.91183594 -111.23070312 83.64789063 -111.21875 84.40625 C-110.49300781 84.51839844 -109.76726562 84.63054687 -109.01953125 84.74609375 C-99.52861098 86.98314469 -91.69826844 94.41055586 -86.2734375 102.19921875 C-78.3703323 114.97976335 -76.18458767 128.26678962 -78.875 143 C-82.1868077 154.99102789 -89.2848734 164.09424194 -98.046875 172.6953125 C-98.87652771 173.52404877 -99.70618042 174.35278503 -100.56097412 175.20663452 C-102.30429816 176.94396122 -104.05243524 178.67647068 -105.80517578 180.40429688 C-108.45852478 183.02116537 -111.09554898 185.6536516 -113.73046875 188.2890625 C-144.81903766 219.25210927 -144.81903766 219.25210927 -167.66015625 219.43359375 C-182.61025309 218.79357863 -196.06040819 213.60706548 -206.40625 202.59375 C-217.04432611 189.75469262 -219.67225097 175.63513295 -218.21875 159.40625 C-217.60473886 155.83261683 -216.67071232 152.72051182 -215.21875 149.40625 C-214.96351563 148.73980469 -214.70828125 148.07335937 -214.4453125 147.38671875 C-210.13664022 137.36609102 -200.55086903 129.57590028 -192.984375 121.96875 C-192.14332214 121.12199707 -191.30226929 120.27524414 -190.43572998 119.40283203 C-188.67581712 117.63355597 -186.91451132 115.86566444 -185.15185547 114.09912109 C-182.45470306 111.39215194 -179.7683988 108.67469819 -177.08203125 105.95703125 C-175.36263671 104.23111552 -173.6426072 102.50583208 -171.921875 100.78125 C-171.12283752 99.96986572 -170.32380005 99.15848145 -169.50054932 98.32250977 C-168.37347565 97.19993774 -168.37347565 97.19993774 -167.22363281 96.0546875 C-166.5690509 95.39645996 -165.91446899 94.73823242 -165.24005127 94.06005859 C-163.01039818 92.23577861 -160.93079968 91.33687764 -158.21875 90.40625 C-157.92484375 91.8603125 -157.92484375 91.8603125 -157.625 93.34375 C-152.87885989 115.20517613 -140.80543474 135.74612167 -121.78125 148.21875 C-119.9427498 149.30813391 -118.08780802 150.37016969 -116.21875 151.40625 C-114.64287109 152.29376953 -114.64287109 152.29376953 -113.03515625 153.19921875 C-107.60364325 156.38086744 -107.60364325 156.38086744 -101.55859375 157.27734375 C-96.64979629 155.44986156 -94.39247976 150.55684977 -91.984375 146.14453125 C-88.77739977 139.11474858 -88.43908925 132.05202198 -88.21875 124.40625 C-89.476875 124.07625 -90.735 123.74625 -92.03125 123.40625 C-102.8564479 119.72976769 -110.53163867 112.12979182 -116.21875 102.40625 C-123.04986048 88.47146603 -124.41252345 74.50979579 -119.6796875 59.6640625 C-115.41606984 50.15642311 -109.53947618 43.13083679 -102.17578125 35.83203125 C-101.20121593 34.85476153 -100.22724418 33.87689956 -99.25382996 32.89848328 C-97.2237367 30.86253665 -95.18670224 28.83388581 -93.14428711 26.81030273 C-90.55333301 24.24210481 -87.98072195 21.65639815 -85.41313648 19.06486225 C-83.40843058 17.04555859 -81.39411652 15.03605408 -79.37695885 13.02919579 C-77.96996158 11.62608941 -76.57088088 10.21505842 -75.17207336 8.80378723 C-54.08442354 -11.98197146 -25.07669262 -18.01283554 0 0 Z " fill="#FFFFFF" transform="translate(817.21875,404.59375)"/>
<path d="M0 0 C0.66 0 1.32 0 2 0 C2.235979 0.589021 2.47195801 1.17804199 2.71508789 1.78491211 C3.81616509 4.50865749 4.93914277 7.22287175 6.0625 9.9375 C6.43310547 10.86369141 6.80371094 11.78988281 7.18554688 12.74414062 C10.68667908 21.12920516 15.37162985 28.2362562 22.4375 34.0625 C23.11683594 34.63097656 23.79617188 35.19945312 24.49609375 35.78515625 C24.99238281 36.18605469 25.48867188 36.58695313 26 37 C25.03513873 41.92079246 24.05786076 44.81820119 19.83203125 47.93359375 C14.00642356 51.32461912 7.67786934 53.01865803 1 52 C-1.4375 49.0625 -1.4375 49.0625 -3 46 C-3.495 45.505 -3.495 45.505 -4 45 C-7.56394504 45.00911495 -11.11800644 45.13348277 -14.6796875 45.2578125 C-18 45 -18 45 -19.93359375 43.69140625 C-21.5311582 41.15754029 -21.19454014 38.91810207 -21 36 C-20.33613281 35.731875 -19.67226563 35.46375 -18.98828125 35.1875 C-17.66376953 34.5996875 -17.66376953 34.5996875 -16.3125 34 C-15.44238281 33.62875 -14.57226562 33.2575 -13.67578125 32.875 C-7.03377939 28.22075052 -5.01966105 20.81559791 -3.25 13.25 C-3.04246094 12.41339844 -2.83492188 11.57679688 -2.62109375 10.71484375 C-2.23883179 9.16853245 -1.86210313 7.62083313 -1.49316406 6.07128906 C-1.01037685 4.04358277 -0.50901665 2.02126296 0 0 Z " fill="#FFFFFF" transform="translate(358,611)"/>
</svg>
