<?xml version="1.0" encoding="UTF-8"?>
<svg version="1.1" xmlns="http://www.w3.org/2000/svg" width="550" height="550">
<path d="M0 0 C0.94210831 -0.00705963 1.88421661 -0.01411926 2.85487366 -0.02139282 C42.04071823 -0.24837484 42.04071823 -0.24837484 59.8046875 3.203125 C60.84399414 3.39648438 61.88330078 3.58984375 62.95410156 3.7890625 C87.60757309 8.47807029 111.280119 16.13028203 133.8046875 27.203125 C134.56587891 27.56954102 135.32707031 27.93595703 136.11132812 28.31347656 C156.60650149 38.24815984 175.66715918 51.22387581 192.8046875 66.203125 C193.33416992 66.66493164 193.86365234 67.12673828 194.40917969 67.60253906 C197.95296072 70.72043876 201.40310671 73.9306773 204.8046875 77.203125 C205.37461426 77.7511377 205.94454102 78.29915039 206.53173828 78.86376953 C214.16578528 86.25042641 221.29074338 93.79226309 227.8046875 102.203125 C228.98417969 103.67458984 228.98417969 103.67458984 230.1875 105.17578125 C264.92848151 148.84702492 287.72676317 206.30144235 288.0078125 262.3984375 C288.01487213 263.34054581 288.02193176 264.28265411 288.02920532 265.25331116 C288.25618734 304.43915573 288.25618734 304.43915573 284.8046875 322.203125 C284.61132812 323.24243164 284.41796875 324.28173828 284.21875 325.35253906 C279.52974221 350.00601059 271.87753047 373.6785565 260.8046875 396.203125 C260.43827148 396.96431641 260.07185547 397.72550781 259.69433594 398.50976562 C249.75965266 419.00493899 236.78393669 438.06559668 221.8046875 455.203125 C221.11197754 455.99734863 221.11197754 455.99734863 220.40527344 456.80761719 C217.28737374 460.35139822 214.0771352 463.80154421 210.8046875 467.203125 C210.2566748 467.77305176 209.70866211 468.34297852 209.14404297 468.93017578 C201.75738609 476.56422278 194.21554941 483.68918088 185.8046875 490.203125 C184.82371094 490.98945313 183.84273438 491.77578125 182.83203125 492.5859375 C139.16078758 527.32691901 81.70637015 550.12520067 25.609375 550.40625 C24.66726669 550.41330963 23.72515839 550.42036926 22.75450134 550.42764282 C-16.43134323 550.65462484 -16.43134323 550.65462484 -34.1953125 547.203125 C-35.23461914 547.00976562 -36.27392578 546.81640625 -37.34472656 546.6171875 C-61.99819809 541.92817971 -85.670744 534.27596797 -108.1953125 523.203125 C-108.95650391 522.83670898 -109.71769531 522.47029297 -110.50195312 522.09277344 C-130.99712649 512.15809016 -150.05778418 499.18237419 -167.1953125 484.203125 C-167.98953613 483.51041504 -167.98953613 483.51041504 -168.79980469 482.80371094 C-172.34358572 479.68581124 -175.79373171 476.4755727 -179.1953125 473.203125 C-179.76523926 472.6551123 -180.33516602 472.10709961 -180.92236328 471.54248047 C-188.55641028 464.15582359 -195.68136838 456.61398691 -202.1953125 448.203125 C-202.98164063 447.22214844 -203.76796875 446.24117188 -204.578125 445.23046875 C-239.31910651 401.55922508 -262.11738817 344.10480765 -262.3984375 288.0078125 C-262.40549713 287.06570419 -262.41255676 286.12359589 -262.41983032 285.15293884 C-262.64681234 245.96709427 -262.64681234 245.96709427 -259.1953125 228.203125 C-259.00195312 227.16381836 -258.80859375 226.12451172 -258.609375 225.05371094 C-253.92036721 200.40023941 -246.26815547 176.7276935 -235.1953125 154.203125 C-234.82889648 153.44193359 -234.46248047 152.68074219 -234.08496094 151.89648438 C-224.15027766 131.40131101 -211.17456169 112.34065332 -196.1953125 95.203125 C-195.73350586 94.67364258 -195.27169922 94.14416016 -194.79589844 93.59863281 C-191.67799874 90.05485178 -188.4677602 86.60470579 -185.1953125 83.203125 C-184.6472998 82.63319824 -184.09928711 82.06327148 -183.53466797 81.47607422 C-176.14801109 73.84202722 -168.60617441 66.71706912 -160.1953125 60.203125 C-159.21433594 59.41679688 -158.23335938 58.63046875 -157.22265625 57.8203125 C-113.55141258 23.07933099 -56.09699515 0.28104933 0 0 Z " fill="#EBEBEB" transform="translate(262.1953125,-0.203125)"/>
<path d="M0 0 C26.73 0 53.46 0 81 0 C81 1.98 81 3.96 81 6 C80 7 80 7 77.14634705 7.12025452 C75.86949539 7.11803391 74.59264374 7.11581329 73.27709961 7.11352539 C72.5746965 7.11367142 71.8722934 7.11381744 71.14860535 7.1139679 C68.81648722 7.11326872 66.484448 7.10547617 64.15234375 7.09765625 C62.53951562 7.09579208 60.92668693 7.09436818 59.31385803 7.09336853 C55.06084643 7.08954323 50.80786876 7.07971285 46.55487061 7.06866455 C41.45628308 7.05665612 36.35768422 7.05204825 31.25908661 7.04621124 C23.50603411 7.03650109 15.75305613 7.01734464 8 7 C8 22.51 8 38.02 8 54 C30.44 54 52.88 54 76 54 C76 56.31 76 58.62 76 61 C53.56 61 31.12 61 8 61 C8 78.16 8 95.32 8 113 C32.09 113 56.18 113 81 113 C81 114.98 81 116.96 81 119 C54.27 119 27.54 119 0 119 C0 79.73 0 40.46 0 0 Z " fill="#111111" transform="translate(163,215)"/>
<path d="M0 0 C0 4.37084863 -2.56771133 6.91410247 -5.0625 10.3125 C-6.17231778 11.85291104 -7.28030386 13.39464298 -8.38671875 14.9375 C-9.27109619 16.16919922 -9.27109619 16.16919922 -10.17333984 17.42578125 C-13.30738882 21.84243621 -16.33749068 26.32915997 -19.375 30.8125 C-24.85172392 38.87847584 -30.39705323 46.89187779 -36.00244141 54.86889648 C-40.07589338 60.66849546 -44.09928368 66.50024966 -48.10083008 72.34960938 C-50.59729807 75.98919934 -53.13016234 79.59763405 -55.71289062 83.17651367 C-57.35971439 85.4605952 -58.99126888 87.75525908 -60.61865234 90.05322266 C-61.62013052 91.46463781 -62.62627499 92.87274571 -63.63525391 94.27880859 C-65.35939424 96.69377429 -67.05665345 99.12587094 -68.75 101.5625 C-69.30034912 102.32481934 -69.85069824 103.08713867 -70.41772461 103.87255859 C-73.29943132 107.83062051 -73.29943132 107.83062051 -73.72265625 112.484375 C-71.12120681 116.28331705 -68.46421727 120.0140219 -65.6875 123.6875 C-64.41327169 125.39394102 -63.13985305 127.1009869 -61.8671875 128.80859375 C-61.22104492 129.67339355 -60.57490234 130.53819336 -59.90917969 131.42919922 C-56.45840998 136.0758239 -53.08731249 140.77954323 -49.71044922 145.47998047 C-47.1043502 149.10219324 -44.48189403 152.7092531 -41.8125 156.28515625 C-41.30678467 156.96481445 -40.80106934 157.64447266 -40.2800293 158.34472656 C-39.33305025 159.61450715 -38.38169649 160.88104238 -37.42504883 162.14355469 C-35.06928393 165.30733123 -33.25853197 168.25252771 -32 172 C-34.89708081 172.2756208 -37.16707317 172.46839493 -40 172 C-42.6171875 169.6484375 -42.6171875 169.6484375 -44.875 166.375 C-45.29225342 165.7874292 -45.70950684 165.1998584 -46.1394043 164.59448242 C-47.01445968 163.35745963 -47.87819925 162.11236137 -48.73095703 160.85986328 C-49.92913063 159.10386357 -51.15656822 157.37479045 -52.40234375 155.65234375 C-54.04165364 153.38437618 -55.66892457 151.10869402 -57.28515625 148.82421875 C-60.41500576 144.40636533 -63.58106965 140.01487 -66.75 135.625 C-67.54627808 134.51958862 -67.54627808 134.51958862 -68.35864258 133.3918457 C-71.46959405 129.08276736 -74.63774568 124.83262538 -77.90722656 120.64208984 C-79 119 -79 119 -79 117 C-82.65760983 120.48374457 -85.596004 124.02543724 -88.5 128.1875 C-89.37830071 129.43662391 -90.2572389 130.68529977 -91.13671875 131.93359375 C-91.59997559 132.59343262 -92.06323242 133.25327148 -92.54052734 133.93310547 C-95.63849302 138.32042186 -98.79036107 142.66978852 -101.96191406 147.00415039 C-104.87316608 150.99454401 -107.69258451 155.01802023 -110.40234375 159.1484375 C-110.96332764 159.98149414 -111.52431152 160.81455078 -112.10229492 161.67285156 C-113.17565741 163.27025159 -114.22546216 164.88381682 -115.24731445 166.51464844 C-118.82622031 171.76284859 -118.82622031 171.76284859 -122.39257812 172.48339844 C-124.65273805 172.49135052 -126.76969351 172.35303847 -129 172 C-124.99366866 165.38026709 -120.66179313 159.12954265 -115.89819336 153.0390625 C-111.5624287 147.48201283 -107.49644668 141.7498413 -103.42285156 135.99951172 C-100.65555119 132.11066648 -97.85773036 128.24379188 -95.0625 124.375 C-94.22851685 123.21931519 -94.22851685 123.21931519 -93.37768555 122.0402832 C-92.85215088 121.31284912 -92.32661621 120.58541504 -91.78515625 119.8359375 C-91.31988525 119.19188965 -90.85461426 118.5478418 -90.37524414 117.88427734 C-89.38595809 116.52881671 -88.35454799 115.20373886 -87.29785156 113.90014648 C-86.86956055 113.27309814 -86.44126953 112.6460498 -86 112 C-87.00137928 107.01051887 -90.83785397 102.83085107 -93.8125 98.8125 C-94.99489999 97.1953917 -96.17718856 95.57820192 -97.359375 93.9609375 C-97.96458984 93.1369043 -98.56980469 92.31287109 -99.19335938 91.46386719 C-102.00107875 87.63474503 -104.78300378 83.78713599 -107.5625 79.9375 C-108.09101563 79.2057959 -108.61953125 78.4740918 -109.1640625 77.72021484 C-113.06830084 72.30784541 -116.95135349 66.88069609 -120.8125 61.4375 C-121.33465088 60.7045874 -121.85680176 59.9716748 -122.39477539 59.21655273 C-126 54.11706143 -126 54.11706143 -126 53 C-122.79180772 52.42710852 -121.08241847 52.17378474 -118 53 C-114.73914594 55.884102 -112.44973376 59.42275477 -110 63 C-108.8467601 64.59984744 -107.69343591 66.1996362 -106.53759766 67.79760742 C-105.27681086 69.54959354 -104.02978337 71.31072147 -102.78515625 73.07421875 C-100.77021676 75.92413862 -98.73328691 78.75700144 -96.68359375 81.58203125 C-96.11406982 82.36707031 -95.5445459 83.15210938 -94.95776367 83.9609375 C-93.85362554 85.48131756 -92.74839387 87.00090434 -91.6418457 88.51953125 C-88.38511148 93.01031605 -85.27995611 97.566868 -82.28808594 102.23901367 C-81.10522204 104.13817676 -81.10522204 104.13817676 -79 105 C-78.71946777 104.4131543 -78.43893555 103.82630859 -78.14990234 103.22167969 C-77.08527481 101.164756 -75.93507742 99.34308919 -74.6015625 97.453125 C-74.1286377 96.78168457 -73.65571289 96.11024414 -73.16845703 95.41845703 C-72.65911621 94.70286621 -72.14977539 93.98727539 -71.625 93.25 C-71.09116699 92.49702637 -70.55733398 91.74405273 -70.00732422 90.96826172 C-65.97058882 85.30119233 -61.83834107 79.7118414 -57.64086914 74.16308594 C-54.92716127 70.57518992 -52.23924678 66.97166924 -49.58984375 63.3359375 C-42.96653173 54.24937981 -36.16730815 45.38602888 -29.0234375 36.703125 C-26.23818726 33.31162156 -23.53778993 29.86316439 -20.875 26.375 C-17.34204392 21.74700044 -13.78272809 17.14232343 -10.1875 12.5625 C-9.74325684 11.99515137 -9.29901367 11.42780273 -8.84130859 10.84326172 C-5.95719333 7.17385143 -3.00217963 3.57351004 0 0 Z " fill="#090909" transform="translate(377,162)"/>
<path d="M0 0 C10 0 10 0 12.54321289 2.46704102 C13.1593042 3.61358154 13.77539551 4.76012207 14.41015625 5.94140625 C15.1480359 7.23764864 15.8892363 8.53200491 16.63330078 9.82470703 C17.01399719 10.50913879 17.3946936 11.19357056 17.78692627 11.89874268 C19.85667338 15.48390916 22.21528857 18.86731933 24.55859375 22.27734375 C25.53250483 23.71248107 26.50580645 25.14803215 27.47851562 26.58398438 C28.46474535 28.03522313 29.45107369 29.48639487 30.4375 30.9375 C32.39537915 33.8210398 34.35224935 36.70526251 36.30859375 39.58984375 C36.78708771 40.29510193 37.26558167 41.00036011 37.75857544 41.72698975 C41.36201384 47.04384468 44.92959778 52.38384812 48.48625183 57.73207092 C52.19806518 63.30908947 55.96943763 68.84438783 59.75 74.375 C66.31243708 84.00059529 72.79892998 93.67447394 79.25 103.375 C88.26479341 116.92808016 97.33791675 130.44120866 106.4375 143.9375 C107.37692444 145.33183258 107.37692444 145.33183258 108.33532715 146.7543335 C117.55254182 160.45639736 117.55254182 160.45639736 127 174 C126.67 174.66 126.34 175.32 126 176 C119.42469592 167.52172557 112.96032816 158.96521085 106.53540039 150.37255859 C103.0197786 145.67589027 99.47515882 141.00712617 95.875 136.375 C84.92100357 122.1727015 74.79096245 107.40191183 64.73535156 92.55664062 C62.25506993 88.9025172 59.75496289 85.26223152 57.25 81.625 C56.81155762 80.98804199 56.37311523 80.35108398 55.92138672 79.69482422 C55.05124217 78.43089636 54.18096363 77.16706073 53.31054688 75.90332031 C51.50065314 73.27479358 49.6927844 70.64487701 47.88500977 68.01489258 C46.96115709 66.6708848 46.03716604 65.32697213 45.11303711 63.9831543 C42.88198529 60.73881177 40.65222874 57.49359804 38.42578125 54.24609375 C37.55480605 52.97648116 36.68371083 51.70695091 35.8125 50.4375 C35.37599121 49.80134766 34.93948242 49.16519531 34.48974609 48.50976562 C31.65179326 44.38147021 28.79414401 40.26738644 25.92578125 36.16015625 C25.21510498 35.14187744 24.50442871 34.12359863 23.7722168 33.07446289 C22.37308052 31.07112882 20.97228294 29.06895366 19.56958008 27.06811523 C18.92013428 26.13813721 18.27068848 25.20815918 17.6015625 24.25 C17.02744629 23.43015625 16.45333008 22.6103125 15.86181641 21.765625 C13.48535113 18.23551765 11.2554083 14.60865328 9 11 C8.67 46.64 8.34 82.28 8 119 C5.36 119 2.72 119 0 119 C0 79.73 0 40.46 0 0 Z " fill="#0C0C0C" transform="translate(63,215)"/>
<path d="M0 0 C30.03 0 60.06 0 91 0 C91 1.98 91 3.96 91 6 C77.14 6 63.28 6 49 6 C49 43.29 49 80.58 49 119 C46.69 119 44.38 119 42 119 C42 81.71 42 44.42 42 6 C28.14 6 14.28 6 0 6 C0 4.02 0 2.04 0 0 Z " fill="#040404" transform="translate(349,215)"/>
<path d="M0 0 C2.625 1.8125 2.625 1.8125 4 4 C4 4.99 4 5.98 4 7 C2.68 7 1.36 7 0 7 C-0.66 6.01 -1.32 5.02 -2 4 C-5.08365871 3.7497843 -5.08365871 3.7497843 -8 4 C-8.33 5.32 -8.66 6.64 -9 8 C-7.1746875 8.6496875 -7.1746875 8.6496875 -5.3125 9.3125 C-1.61290823 10.69656713 2.15801938 12.15801938 5 15 C5.29629238 18.3332893 5.35806333 20.36912652 3.6875 23.3125 C1.02861105 25.97138895 -1.76730673 26.2149317 -5.375 26.375 C-9.19636462 26.3500645 -9.86081352 26.10794054 -13.0625 23.625 C-15 21 -15 21 -15 19 C-10.125 19.875 -10.125 19.875 -9 21 C-6.32941149 21.14115161 -3.67567762 21.04247107 -1 21 C-0.67 19.68 -0.34 18.36 0 17 C-0.92683594 16.66226562 -1.85367187 16.32453125 -2.80859375 15.9765625 C-4.00613281 15.53054688 -5.20367187 15.08453125 -6.4375 14.625 C-7.63246094 14.18414062 -8.82742188 13.74328125 -10.05859375 13.2890625 C-13 12 -13 12 -14 10 C-14.37252607 6.57276017 -14.36781772 4.63532152 -12.625 1.625 C-8.5742497 -0.88260733 -4.63521444 -0.77766887 0 0 Z " fill="#131313" transform="translate(483,300)"/>
<path d="M0 0 C1.32 0 2.64 0 4 0 C4.14575327 3.39537852 4.23421542 6.78994902 4.3125 10.1875 C4.35439453 11.14720703 4.39628906 12.10691406 4.43945312 13.09570312 C4.56288965 20.23033455 4.56288965 20.23033455 1.703125 24.140625 C-1.83204171 26.57232927 -3.79289328 26.68843565 -8 26 C-10.4375 24.1875 -10.4375 24.1875 -12 22 C-12 21.01 -12 20.02 -12 19 C-10.68 19 -9.36 19 -8 19 C-7.67 19.66 -7.34 20.32 -7 21 C-5.02 21.33 -3.04 21.66 -1 22 C-0.67 14.74 -0.34 7.48 0 0 Z " fill="#0F0F0F" transform="translate(459,300)"/>
<path d="M0 0 C3.56362986 4.28494801 6.65502488 8.81831162 9.75390625 13.44140625 C10.29603256 14.24609848 10.83815887 15.05079071 11.39671326 15.87986755 C13.12068676 18.43937593 14.84177849 21.00080446 16.5625 23.5625 C18.28717997 26.12750123 20.01248925 28.69207373 21.73899841 31.25584412 C22.8108427 32.84772831 23.88157932 34.44035903 24.95106506 36.03382874 C25.4384465 36.75815598 25.92582794 37.48248322 26.42797852 38.22875977 C26.85337418 38.86209732 27.27876984 39.49543488 27.71705627 40.14796448 C29.09556216 42.1379519 30.53644184 44.07193984 32 46 C31.505 46.99 31.505 46.99 31 48 C24.39262835 39.48037726 17.89151172 30.88564846 11.44311523 22.24511719 C10.83927002 21.43719727 10.2354248 20.62927734 9.61328125 19.796875 C9.02248779 19.004021 8.43169434 18.21116699 7.82299805 17.39428711 C6.56910818 15.74745465 5.28748028 14.12149313 3.98364258 12.51391602 C3.34193115 11.72170654 2.70021973 10.92949707 2.0390625 10.11328125 C1.16241943 9.05427612 1.16241943 9.05427612 0.26806641 7.97387695 C-1 6 -1 6 -0.9375 2.4375 C-0.628125 1.633125 -0.31875 0.82875 0 0 Z " fill="#202020" transform="translate(158,343)"/>
<path d="M0 0 C0 4.39285402 -2.61430381 6.96209569 -5.125 10.375 C-10.15279111 17.34004171 -15.00165628 24.40396587 -19.75 31.5625 C-20.3702002 32.49690918 -20.99040039 33.43131836 -21.62939453 34.39404297 C-23.08817584 36.59477289 -24.54516585 38.79665951 -26 41 C-26.99 40.67 -27.98 40.34 -29 40 C-31.19038423 41.37168238 -31.19038423 41.37168238 -33 43 C-31.27597428 38.91678119 -28.47049015 35.70574047 -25.6875 32.3125 C-20.51317492 25.93384719 -15.48574076 19.45835817 -10.54174805 12.8996582 C-7.1761068 8.45731174 -3.6642053 4.20016368 0 0 Z " fill="#141414" transform="translate(377,162)"/>
<path d="M0 0 C0 4.62904995 -2.73655407 7.46813292 -5.3125 11.1875 C-5.81201172 11.93708984 -6.31152344 12.68667969 -6.82617188 13.45898438 C-7.31279297 14.16732422 -7.79941406 14.87566406 -8.30078125 15.60546875 C-8.96847534 16.58229614 -8.96847534 16.58229614 -9.6496582 17.57885742 C-10.095271 18.04783447 -10.54088379 18.51681152 -11 19 C-11.99 19 -12.98 19 -14 19 C-12.71606032 16.2682214 -11.30918785 13.94430645 -9.43359375 11.58203125 C-8.94826172 10.96779297 -8.46292969 10.35355469 -7.96289062 9.72070312 C-7.45951172 9.09099609 -6.95613281 8.46128906 -6.4375 7.8125 C-5.67663086 6.85053711 -5.67663086 6.85053711 -4.90039062 5.86914062 C-1.18849649 1.18849649 -1.18849649 1.18849649 0 0 Z " fill="#272727" transform="translate(377,162)"/>
<path d="M0 0 C0.99 0 1.98 0 3 0 C4.421875 1.6796875 4.421875 1.6796875 5.75 3.875 C6.19859375 4.59429687 6.6471875 5.31359375 7.109375 6.0546875 C7.40328125 6.69664062 7.6971875 7.33859375 8 8 C7.67 8.66 7.34 9.32 7 10 C5.82739389 8.71372289 4.6620717 7.42080217 3.5 6.125 C2.8503125 5.40570313 2.200625 4.68640625 1.53125 3.9453125 C0 2 0 2 0 0 Z " fill="#1E1E1E" transform="translate(172,367)"/>
<path d="M0 0 C0.99 0.33 1.98 0.66 3 1 C3.33 2.65 3.66 4.3 4 6 C2.68 6 1.36 6 0 6 C-0.66 4.68 -1.32 3.36 -2 2 C-1.34 1.34 -0.68 0.68 0 0 Z " fill="#202020" transform="translate(483,301)"/>
<path d="M0 0 C1.32 0 2.64 0 4 0 C3.67 1.65 3.34 3.3 3 5 C1.68 4.67 0.36 4.34 -1 4 C-0.67 2.68 -0.34 1.36 0 0 Z " fill="#1B1B1B" transform="translate(438,321)"/>
<path d="M0 0 C0.33 0.66 0.66 1.32 1 2 C-0.32 3.65 -1.64 5.3 -3 7 C-3.66 6.67 -4.32 6.34 -5 6 C-3.63016497 2.83884224 -3.0109362 2.0072908 0 0 Z " fill="#1C1C1C" transform="translate(364,180)"/>
</svg>
